{"title":"Dead.Rising.Watchtower.2015.BRRip.480p.x264.AAC-VYTO","uid":12166868,"size":423295357,"categoryP":"video","categoryS":"movies","magnet":"?xt=urn:btih:bb1de06ff149661b169853893e2134a286ea2d1b&amp;dn=Dead.Rising.Watchtower.2015.BRRip.480p.x264.AAC-VYTO&amp;tr=udp%3A%2F%2Ftracker.openbittorrent.com%3A80&amp;tr=udp%3A%2F%2Fopen.demonii.com%3A1337&amp;tr=udp%3A%2F%2Ftracker.coppersurfer.tk%3A6969&amp;tr=udp%3A%2F%2Fexodus.desync.com%3A6969","seeders":2,"leechers":0,"uploader":"ValidusVyto","files":6,"time":1438061411,"description":"____    ____ ____    ____ .___________.  ______   \n     /   /      /   / |           | /  __    \n    /   /      /   /  `---|  |----`|  |  |  | \n        /     _    _/       |  |     |  |  |  | \n       /        |  |         |  |     |  `--'  | \n    __/         |__|         |__|      ______/  \n                                                  \nPresenting Small Encodes with quality for years!\n                                                                                                   \n                                                                                                   \n\nDead.Rising.Watchtower.2015.BRRip.480p.x264.AAC-VYTO\n\n\nGenre: Horror &lt;a href=&quot;\nhttp://www.imdb.com/title/tt3816458/&quot; rel=&quot;nofollow&quot; target=&quot;_NEW&quot;&gt;\nhttp://www.imdb.com/title/tt3816458/&lt;/a&gt;\n\n\nGeneral\nFormat                         : MPEG-4\nFile size                      : 399 MiB\nDuration                       : 1h 58mn\nOverall bit rate               : 472 Kbps\n\nVideo\nFormat                         : AVC\nBit rate                       : 440 Kbps\nMaximum bit rate               : 3 650 Kbps\nWidth                          : 720 pixels\nHeight                         : 304 pixels\nDisplay aspect ratio           : 2.35:1\nFrame rate mode                : Constant\nFrame rate                     : 23.976 fps\nBit depth                      : 8 bits\nStream size                    : 369 MiB (93%)\nWriting library                : x264 core 146 r2538 121396c\n\nAudio\nFormat                         : AAC\nBit rate mode                  : Variable\nBit rate                       : 32.0 Kbps\nChannel(s)                     : 2 channels\nChannel positions              : Front: L R\nSampling rate                  : 48.0 KHz \nStream size                    : 27.0 MiB (7%)\nLanguage                       : English\n\nSubtitle                       : N/a\nSource                         : 1080p.BluRay.x264.DTS\n\n\nScreenshots:\n &lt;a href=&quot;\nhttp://ititli.com/rr&quot; rel=&quot;nofollow&quot; target=&quot;_NEW&quot;&gt;\nhttp://ititli.com/rr&lt;/a&gt; &lt;a href=&quot;\nhttp://ititli.com/r1&quot; rel=&quot;nofollow&quot; target=&quot;_NEW&quot;&gt;\nhttp://ititli.com/r1&lt;/a&gt; &lt;a href=&quot;\nhttp://ititli.com/rT&quot; rel=&quot;nofollow&quot; target=&quot;_NEW&quot;&gt;\nhttp://ititli.com/rT&lt;/a&gt; &lt;a href=&quot;\nhttp://ititli.com/rW&quot; rel=&quot;nofollow&quot; target=&quot;_NEW&quot;&gt;\nhttp://ititli.com/rW&lt;/a&gt; &lt;a href=&quot;\nhttp://ititli.com/rg&quot; rel=&quot;nofollow&quot; target=&quot;_NEW&quot;&gt;\nhttp://ititli.com/rg&lt;/a&gt; &lt;a href=&quot;\nhttp://ititli.com/rn&quot; rel=&quot;nofollow&quot; target=&quot;_NEW&quot;&gt;\nhttp://ititli.com/rn&lt;/a&gt; &lt;a href=&quot;\nhttp://ititli.com/rw&quot; rel=&quot;nofollow&quot; target=&quot;_NEW&quot;&gt;\nhttp://ititli.com/rw&lt;/a&gt; &lt;a href=&quot;\nhttp://ititli.com/r2&quot; rel=&quot;nofollow&quot; target=&quot;_NEW&quot;&gt;\nhttp://ititli.com/r2&lt;/a&gt; &lt;a href=&quot;\nhttp://ititli.com/r6&quot; rel=&quot;nofollow&quot; target=&quot;_NEW&quot;&gt;\nhttp://ititli.com/r6&lt;/a&gt; &lt;a href=&quot;\nhttp://ititli.com/r8&quot; rel=&quot;nofollow&quot; target=&quot;_NEW&quot;&gt;\nhttp://ititli.com/r8&lt;/a&gt; &lt;a href=&quot;\nhttp://ititli.com/re&quot; rel=&quot;nofollow&quot; target=&quot;_NEW&quot;&gt;\nhttp://ititli.com/re&lt;/a&gt; &lt;a href=&quot;\nhttp://ititli.com/rj&quot; rel=&quot;nofollow&quot; target=&quot;_NEW&quot;&gt;\nhttp://ititli.com/rj&lt;/a&gt;\n\n----------------------------------------------------------------------------------------------------\n\n\nEncoder Notes: Looking For Early Access To Anything You Can Provide DVDScr, R5, DVDR, BluRay, Direct\nAudio, Music Releases and Seedboxes. If You Got anything to offer please contact us.\n\nSupport us by donating BC - 1FgwdzPsd1y25Gea8wP1qni35uGCtmkRCD","torrent":{"xt":"urn:btih:bb1de06ff149661b169853893e2134a286ea2d1b","amp;dn":"Dead.Rising.Watchtower.2015.BRRip.480p.x264.AAC-VYTO","amp;tr":["udp%3A%2F%2Ftracker.openbittorrent.com%3A80","udp%3A%2F%2Fopen.demonii.com%3A1337","udp%3A%2F%2Ftracker.coppersurfer.tk%3A6969","udp%3A%2F%2Fexodus.desync.com%3A6969"],"infoHash":"bb1de06ff149661b169853893e2134a286ea2d1b","infoHashBuffer":{"type":"Buffer","data":[187,29,224,111,241,73,102,27,22,152,83,137,62,33,52,162,134,234,45,27]},"announce":[],"urlList":[]}}